PathFileType	4	(X/Y/Z)	Kaydara																																																																																																																																																																																																																												
DataRate	CameraRate	NumFrames	NumMarkers	Units	OrigDataRate	OrigDataStartFrame	OrigNumFrames																																																																																																																																																																																																																								
60	60	4	74	mm	60	2137	203																																																																																																																																																																																																																								
Frame#	Time	N_lasi			N_rasi			N_rpsi			N_lpsi			N_fneck			N_bneck			N_fhead			N_rhead			N_lhead			N_rshld			N_relbtop			N_relbext			N_relblow			N_rwrext			N_rwrtop			N_rwrlow			N_lshld			N_lelblow			N_lelbtop			N_lwrext			N_lwrtop			N_lwrlow			N_rtopleg			N_ltopleg			N_rkneefr			N_rkneebk			N_rkneeis			N_lkneefr			N_lknssbk			N_lkneeis			N_rankfr			N_rankis			N_rankbk			N_lankfr			N_lankbk			N_lankis			D_lasi			D_rasi			D_lpsi			D_fneck			D_bneck			D_fhead			D_rhead			D_lhead			D_rshld			D_relbtop			D_relbext			D_relblow			D_rwrext			D_rwrtop			D_rwrlow			D_lshld			D_lelbext			D_lelblow			D_lelbtop			D_lwrext			D_lwrtop			D_lwrlow			D_rtopleg			D_ltopleg			D_rkneefr			D_rkneebk			D_rkneeis			D_lkneefr			D_lknssbk			D_lkneeis			D_rankfr			D_rankis			D_rankbk			D_lankfr			D_lankbk			D_lankis			D_rpsi			N_lelbext		
		X1	Y1	Z1	X2	Y2	Z2	X3	Y3	Z3	X4	Y4	Z4	X5	Y5	Z5	X6	Y6	Z6	X7	Y7	Z7	X8	Y8	Z8	X9	Y9	Z9	X10	Y10	Z10	X11	Y11	Z11	X12	Y12	Z12	X13	Y13	Z13	X14	Y14	Z14	X15	Y15	Z15	X16	Y16	Z16	X17	Y17	Z17	X18	Y18	Z18	X19	Y19	Z19	X20	Y20	Z20	X21	Y21	Z21	X22	Y22	Z22	X23	Y23	Z23	X24	Y24	Z24	X25	Y25	Z25	X26	Y26	Z26	X27	Y27	Z27	X28	Y28	Z28	X29	Y29	Z29	X30	Y30	Z30	X31	Y31	Z31	X32	Y32	Z32	X33	Y33	Z33	X34	Y34	Z34	X35	Y35	Z35	X36	Y36	Z36	X37	Y37	Z37	X38	Y38	Z38	X39	Y39	Z39	X40	Y40	Z40	X41	Y41	Z41	X42	Y42	Z42	X43	Y43	Z43	X44	Y44	Z44	X45	Y45	Z45	X46	Y46	Z46	X47	Y47	Z47	X48	Y48	Z48	X49	Y49	Z49	X50	Y50	Z50	X51	Y51	Z51	X52	Y52	Z52	X53	Y53	Z53	X54	Y54	Z54	X55	Y55	Z55	X56	Y56	Z56	X57	Y57	Z57	X58	Y58	Z58	X59	Y59	Z59	X60	Y60	Z60	X61	Y61	Z61	X62	Y62	Z62	X63	Y63	Z63	X64	Y64	Z64	X65	Y65	Z65	X66	Y66	Z66	X67	Y67	Z67	X68	Y68	Z68	X69	Y69	Z69	X70	Y70	Z70	X71	Y71	Z71	X72	Y72	Z72	X73	Y73	Z73	X74	Y74	Z74
																																																																																																																																																																																																																															
127	35.6	-515.43034	1276.59439	-66.78028	-502.7393	1290.74707	-297.1357	-243.25266	1253.517	-356.49609	-267.31388	1238.73909	4.70541	-385.25158	1608.228	-166.76306	-222.75837	1662.00531	-144.8604	-449.05823	1789.90829	-169.72876	-250.3311	1777.25067	-193.70516	-321.96178	1763.54095	-58.49316	-216.94384	1654.11606	-260.893	-327.78759	1814.66568	-426.15276	-404.78138	1782.08496	-388.7608	-321.04313	1832.67853	-334.77345	-463.98518	2137.42371	-427.13085	-456.28258	2143.32657	-379.78329	-492.42275	2121.22391	-355.3101	-214.29495	1621.68884	-26.00171	-290.22961	1801.74728	88.13219	-312.08473	1768.54172	168.79063	-397.79827	2108.78479	167.5738	-371.30249	2117.47559	129.1758	-410.31811	2099.09927	94.82026	-401.97559	1097.06001	-438.1176	-364.58	1060.69458	46.93928	-427.24285	562.51503	-257.86348	-321.68713	579.48147	-326.35891	-366.15108	564.73343	-164.76372	-379.1787	539.49158	-98.67379	-252.90903	555.57438	-39.7088	-254.4025	547.78164	-189.72223	-296.55197	139.78373	-270.35002	-298.58002	154.5569	-190.34725	-216.74292	141.50519	-215.16716	-331.6954	192.94683	-118.06334	-258.30603	185.34798	-75.84567	-294.30603	164.34798	-159.84567	-455.36873	1040.35088	1739.30084	-419.64592	1056.71547	1452.43683	-256.45113	1130.54588	1743.47046	-432.78828	1563.79318	1594.35715	-297.72957	1588.53989	1599.61502	-457.90302	1783.99704	1591.29745	-303.04611	1720.2475	1513.96942	-308.53834	1724.96353	1668.8588	-377.06425	1489.34387	1392.10007	-256.15797	1160.83534	1362.61353	-296.20201	1145.53024	1426.77048	-339.44687	1167.97997	1336.46576	-318.24833	914.78722	1361.52664	-373.43067	919.4355	1342.13455	-389.28574	933.65067	1392.29431	-382.7634	1499.24805	1824.3396	-322.67818	1161.94511	1790.66635	-338.55499	1195.40321	1877.74811	-264.52808	1178.09456	1848.14697	-328.74229	934.38698	1871.09589	-372.50996	940.32288	1869.52698	-383.28831	948.54736	1820.74524	-324.20269	1004.06586	1408.40347	-313.40111	1007.93121	1804.90021	-376.11904	455.28534	1449.38538	-276.05555	490.40855	1422.07367	-284.25707	458.21342	1542.82028	-359.75311	448.28804	1770.67688	-246.95	485.78499	1786.73889	-319.03509	443.88428	1679.59488	-324.25274	130.00094	1417.64282	-295.25196	126.44044	1482.67639	-244.00019	127.83387	1417.95044	-323.49396	134.85707	1792.49313	-250.78224	124.94775	1806.31104	-294.28495	124.023	1733.00903	-227.44911	1144.8156	1526.27731	-382.21493	1756.1319	112.5935
128	35.617	-515.55481	1276.85501	-66.84704	-502.81406	1291.03409	-297.19095	-243.33014	1253.42331	-356.53496	-267.26101	1238.66287	4.61875	-385.25158	1608.228	-166.76306	-222.75837	1662.00531	-144.8604	-449.19659	1790.01953	-169.68491	-250.82451	1777.0932	-194.20343	-322.02507	1763.47656	-58.59288	-216.74786	1654.13849	-261.4291	-328.04512	1814.45694	-426.66969	-404.96811	1781.89331	-389.15604	-321.47621	1832.58667	-335.37376	-464.53083	2137.1138	-427.66003	-456.57295	2143.01147	-380.15007	-492.9277	2120.91827	-355.82714	-214.20208	1621.80344	-26.11754	-290.66076	1801.61057	88.259	-312.1641	1768.36807	168.8924	-399.2379	2108.44315	166.90884	-372.66621	2117.1489	128.41688	-411.62319	2098.52539	94.33146	-401.72848	1097.09373	-438.05634	-364.53003	1060.72067	46.99067	-426.95343	562.50874	-258.06726	-321.37424	579.49902	-326.47057	-365.94604	564.72626	-164.8946	-379.11263	539.49383	-98.84212	-252.87045	555.57671	-39.76817	-254.23775	547.76123	-189.74043	-296.46545	139.78676	-270.42257	-298.47239	154.57182	-190.3924	-216.68179	141.47987	-215.1738	-331.67469	192.95948	-118.1039	-258.30067	185.3488	-75.84409	-294.30067	164.3488	-159.84409	-455.112	1040.36865	1739.29657	-419.34345	1056.63147	1452.50092	-256.14841	1130.60463	1743.48221	-432.49245	1563.77274	1594.34784	-297.56458	1588.56171	1599.66949	-457.71881	1783.92288	1591.36292	-302.87689	1720.39078	1514.10095	-308.33858	1725.00931	1669.07501	-376.61465	1489.33472	1392.14569	-255.86344	1160.83054	1362.59186	-296.02274	1145.65598	1426.8132	-339.12483	1168.01941	1336.4682	-317.99078	914.76509	1361.46927	-373.18096	919.4194	1342.12357	-388.99761	933.67737	1392.28912	-382.67555	1499.25629	1824.44489	-322.85084	1162.00661	1790.8786	-338.45661	1195.39597	1877.92587	-264.45185	1178.13187	1848.27774	-328.63106	934.42307	1871.19492	-372.01195	940.19669	1869.96506	-382.11948	947.91481	1821.22513	-324.13063	1004.06555	1408.3989	-313.30868	1007.94891	1804.92645	-375.87166	455.30861	1449.39026	-275.85369	490.43999	1422.0845	-283.9473	458.21014	1542.86316	-359.48921	448.33359	1770.78186	-246.77837	485.76294	1786.66626	-318.81824	443.86223	1679.60449	-324.2289	129.97757	1417.56073	-295.26386	126.42695	1482.61261	-243.95031	127.78276	1418.01544	-323.44994	134.86738	1792.51129	-250.70278	124.93645	1806.27075	-294.22516	123.95983	1733.03223	-226.86352	1144.79477	1525.93018	-382.39246	1755.80902	112.88372
129	35.633	-515.67875	1277.08	-66.80617	-502.88353	1291.25717	-297.17222	-243.40115	1253.3503	-356.59531	-267.2427	1238.58017	4.58103	-385.25158	1608.228	-166.76306	-222.75837	1662.00531	-144.8604	-449.54628	1790.06088	-169.61063	-251.08252	1777.04056	-194.55048	-322.28199	1763.45413	-58.71609	-216.70996	1654.19678	-261.76826	-328.27534	1814.22775	-427.29851	-405.19569	1781.75049	-389.75014	-321.58489	1832.46246	-336.10859	-464.82655	2136.9429	-428.12088	-457.62169	2142.75925	-380.92522	-493.4	2120.65811	-356.31351	-214.1153	1621.95053	-26.33694	-291.20583	1801.44562	88.23721	-312.34249	1768.15857	168.96244	-400.49538	2108.1163	166.3722	-374.22836	2116.772	127.90854	-413.12061	2097.97394	93.82567	-401.48972	1097.05925	-437.86499	-364.58611	1060.66849	46.82014	-426.74862	562.54326	-258.22498	-321.01257	579.47281	-326.53458	-365.7486	564.73782	-165.04677	-379.09058	539.50081	-98.98717	-252.82114	555.58128	-39.82323	-254.10685	547.71717	-189.76784	-296.3623	139.79178	-270.47127	-298.43285	154.58051	-190.4423	-216.64675	141.45812	-215.16363	-331.65222	192.96856	-118.1486	-258.34908	185.35818	-75.8128	-294.34908	164.35818	-159.8128	-454.84676	1040.36209	1739.33411	-419.03416	1056.59271	1452.5322	-255.85665	1130.64598	1743.58948	-432.28252	1563.72238	1594.35104	-297.32985	1588.56995	1599.72153	-457.63439	1783.85117	1591.48071	-302.70452	1720.49271	1514.15192	-308.21365	1725.04059	1669.2511	-376.32774	1489.40659	1392.16751	-255.46995	1160.87135	1362.42966	-295.81696	1145.79483	1426.77567	-338.84865	1168.03886	1336.45004	-317.7857	914.80537	1361.47751	-372.95723	919.47754	1342.09229	-388.64273	933.67783	1392.28378	-382.4847	1499.22546	1824.44397	-323.05939	1162.04567	1791.01868	-338.42621	1195.38994	1877.93732	-264.37941	1178.12317	1848.43063	-328.46443	934.39804	1871.26801	-371.96991	940.14961	1869.94385	-382.79026	948.51082	1820.77377	-324.05857	1004.06532	1408.39447	-313.21623	1007.96661	1804.9527	-375.63274	455.33981	1449.422	-275.62706	490.45612	1422.06772	-283.63787	458.24215	1542.94998	-359.19258	448.34835	1770.8284	-246.52935	485.75359	1786.67694	-318.60813	443.86826	1679.5401	-324.19067	130.00142	1417.56287	-295.21759	126.42938	1482.60361	-243.91247	127.75218	1418.01208	-323.39592	134.88092	1792.43988	-250.52191	124.93535	1806.38824	-294.16706	123.97259	1733.02994	-226.66313	1144.84329	1526.07788	-382.68814	1755.42191	113.04844
130	35.65	-515.78426	1277.22694	-66.73553	-502.93751	1291.33545	-297.10758	-243.4337	1253.2531	-356.61266	-267.13278	1238.4977	4.50826	-385.25158	1608.228	-166.76306	-222.75837	1662.00531	-144.8604	-450.00542	1789.91333	-169.43926	-251.21321	1777.20505	-194.59705	-322.42405	1763.56201	-58.97947	-216.79762	1654.21692	-262.11393	-328.49007	1813.96332	-427.94567	-405.33501	1781.50284	-390.30602	-321.67759	1832.25174	-336.84689	-465.26295	2136.6951	-428.68275	-457.55226	2142.46429	-380.96809	-493.75439	2120.08209	-356.86474	-214.05069	1622.07336	-26.50339	-291.68079	1801.34995	88.25387	-312.61332	1767.88757	169.07461	-402.00665	2107.61673	166.0763	-375.65659	2116.34445	127.59213	-414.47773	2097.49939	93.5379	-401.24039	1096.82152	-437.49805	-364.65336	1060.57335	46.46828	-426.53202	562.62592	-258.38305	-320.63068	579.49814	-326.60828	-365.5621	564.76669	-165.19953	-378.9959	539.52709	-99.12046	-252.79819	555.57087	-39.85008	-253.94487	547.70466	-189.78329	-296.26526	139.81849	-270.54174	-298.41089	154.62382	-190.49881	-216.67128	141.41403	-215.11726	-331.65894	192.97977	-118.18065	-258.32006	185.38263	-75.82595	-294.32006	164.38263	-159.82595	-454.52648	1040.34225	1739.35791	-418.70655	1056.51863	1452.5441	-255.50854	1130.69237	1743.7883	-432.00153	1563.64761	1594.31976	-297.09322	1588.59589	1599.82681	-457.51781	1783.86276	1591.5152	-302.50483	1720.55038	1514.28284	-308.06328	1725.05768	1669.38416	-376.04565	1489.50989	1392.22946	-255.16804	1160.97519	1362.46796	-295.64688	1145.98625	1426.88583	-338.5524	1168.10097	1336.52771	-317.55432	914.85474	1361.50513	-372.66262	919.52255	1342.05856	-388.37177	933.74329	1392.26501	-382.40398	1499.22058	1824.51202	-323.30692	1162.1048	1791.17996	-338.47607	1195.43968	1878.00674	-264.30477	1178.09883	1848.56812	-328.40839	934.34441	1871.31302	-371.96342	940.14961	1869.95026	-382.4855	948.38959	1820.867	-323.98651	1004.06509	1408.38989	-313.12382	1007.98431	1804.97864	-375.37273	455.37643	1449.39407	-275.40174	490.44289	1422.04086	-283.4944	458.20789	1542.87888	-358.9719	448.34949	1770.92163	-246.29236	485.68272	1786.59866	-318.39972	443.84026	1679.487	-324.13536	130.00731	1417.56317	-295.20199	126.41932	1482.60529	-243.80995	127.73973	1418.00079	-323.30776	134.88678	1792.47971	-250.42789	124.88868	1806.29272	-294.09796	123.92852	1733.00552	-226.45113	1144.87457	1526.14243	-383.00781	1754.98352	113.19244
